<svg xmlns="http://www.w3.org/2000/svg" width="1000" height="400" viewBox="0 0 1000 400" role="img" aria-label="BOONWAVE wave mark">
  <defs>
    <linearGradient id="bwWaveGradient" x1="20" y1="55" x2="950" y2="330" gradientUnits="userSpaceOnUse">
      <stop offset="0" stop-color="#b76bff"/>
      <stop offset="0.22" stop-color="#4c24d4"/>
      <stop offset="0.50" stop-color="#b8d8ff"/>
      <stop offset="0.73" stop-color="#158bdc"/>
      <stop offset="1" stop-color="#39d8e9"/>
    </linearGradient>
    <radialGradient id="bwWaveShine" cx="42%" cy="22%" r="74%">
      <stop offset="0" stop-color="#ffffff" stop-opacity="0.58"/>
      <stop offset="0.32" stop-color="#ffffff" stop-opacity="0.15"/>
      <stop offset="1" stop-color="#ffffff" stop-opacity="0"/>
    </radialGradient>
    <filter id="bwWaveShadow" x="-10%" y="-16%" width="120%" height="132%">
      <feDropShadow dx="0" dy="9" stdDeviation="10" flood-color="#1610a8" flood-opacity="0.28"/>
      <feDropShadow dx="0" dy="0" stdDeviation="7" flood-color="#44d8ff" flood-opacity="0.14"/>
    </filter>
  </defs>
  <g filter="url(#bwWaveShadow)">
    <path fill="url(#bwWaveGradient)" d="M13 238C28 118 98 7 177 14c77 7 73 93 105 154 27 52 79 78 133 58 60-22 85-89 145-111 76-28 146-5 189 59 34 50 48 105 104 105 29 0 51-16 66-42 19-31 58-24 58 12 0 62-83 124-173 135-103 13-165-44-212-103-43-54-75-66-116-20-58 66-108 115-214 112C96 369-4 333 13 238z"/>
    <path fill="url(#bwWaveShine)" opacity="0.78" d="M46 221C67 108 119 27 172 26c62-1 68 78 93 132 26 57 87 78 145 51 62-28 89-82 147-101 72-23 135-2 178 52 28 35 41 72 78 86-44-4-72-33-105-66-45-46-99-55-153-27-51 26-87 82-146 103-80 29-148 9-190-51-31-45-37-106-73-125-42-22-89 39-100 141z"/>
  </g>
  <circle cx="937" cy="66" r="24" fill="url(#bwWaveGradient)" filter="url(#bwWaveShadow)"/>
  <circle cx="887" cy="158" r="32" fill="url(#bwWaveGradient)" filter="url(#bwWaveShadow)"/>
  <circle cx="856" cy="246" r="26" fill="url(#bwWaveGradient)" filter="url(#bwWaveShadow)"/>
</svg>
