<svg xmlns="http://www.w3.org/2000/svg" width="1000" height="400" viewBox="0 0 1000 400" role="img" aria-label="BOONWAVE mark"><defs><linearGradient id="wave" x1="35" y1="70" x2="930" y2="330" gradientUnits="userSpaceOnUse"><stop offset="0" stop-color="#b76bff"/><stop offset="0.23" stop-color="#5125d6"/><stop offset="0.52" stop-color="#b6d7ff"/><stop offset="0.73" stop-color="#1989db"/><stop offset="1" stop-color="#38d7e7"/></linearGradient><radialGradient id="shine" cx="38%" cy="24%" r="68%"><stop offset="0" stop-color="#ffffff" stop-opacity="0.62"/><stop offset="0.3" stop-color="#ffffff" stop-opacity="0.18"/><stop offset="1" stop-color="#ffffff" stop-opacity="0"/></radialGradient></defs><path fill="url(#wave)" d="M13 238C28 118 98 7 177 14c77 7 73 93 105 154 27 52 79 78 133 58 60-22 85-89 145-111 76-28 146-5 189 59 34 50 48 105 104 105 29 0 51-16 66-42 19-31 58-24 58 12 0 62-83 124-173 135-103 13-165-44-212-103-43-54-75-66-116-20-58 66-108 115-214 112C96 369-4 333 13 238z"/><path fill="url(#shine)" opacity="0.78" d="M46 221C67 108 119 27 172 26c62-1 68 78 93 132 26 57 87 78 145 51 62-28 89-82 147-101 72-23 135-2 178 52 28 35 41 72 78 86-44-4-72-33-105-66-45-46-99-55-153-27-51 26-87 82-146 103-80 29-148 9-190-51-31-45-37-106-73-125-42-22-89 39-100 141z"/><circle cx="937" cy="66" r="24" fill="url(#wave)"/><circle cx="887" cy="158" r="32" fill="url(#wave)"/><circle cx="856" cy="246" r="26" fill="url(#wave)"/></svg>