<svg xmlns="http://www.w3.org/2000/svg" width="1366" height="547" viewBox="0 0 1366 547" role="img" aria-label="BOONWAVE">
  <defs>
    <linearGradient id="boonwaveLogoGradient" x1="0" y1="0" x2="1366" y2="0" gradientUnits="userSpaceOnUse">
      <stop offset="0%" stop-color="#1058ca"/>
      <stop offset="45%" stop-color="#4961d7"/>
      <stop offset="100%" stop-color="#c861e5"/>
    </linearGradient>
  </defs>
  <g fill="url(#boonwaveLogoGradient)" fill-rule="evenodd">
    <path d="M1192 338 L1179 340 L1158 348 L1141 359 L1127 372 L1116 388 L1107 408 L1104 423 L1104 449 L1109 471 L1118 490 L1129 503 L1138 511 L1157 522 L1181 529 L1304 529 L1304 471 L1204 471 L1191 470 L1180 466 L1168 456 L1166 450 L1309 450 L1311 448 L1311 413 L1308 397 L1302 381 L1291 364 L1278 353 L1258 344 L1235 339 L1222 338 Z M1209 387 L1228 387 L1241 391 L1251 400 L1257 412 L1258 423 L1157 423 L1159 410 L1164 401 L1176 392 L1188 388 Z"/>
    <path d="M653 20 L638 27 L625 37 L610 53 L597 76 L591 98 L590 116 L590 272 L579 276 L562 285 L544 299 L532 314 L521 336 L516 359 L516 394 L521 416 L532 439 L543 452 L561 466 L579 474 L599 478 L622 478 L643 473 L663 462 L676 448 L676 524 L748 524 L748 369 L747 354 L743 336 L736 318 L724 299 L710 285 L694 276 L682 272 L681 118 L684 102 L691 88 L701 79 L714 74 L733 74 L748 80 L759 91 L765 104 L767 119 L767 325 L815 470 L826 495 L837 510 L853 522 L874 529 L899 529 L919 523 L934 512 L945 495 L1026 343 L961 343 L895 478 L891 479 L890 476 L841 329 L840 116 L836 91 L826 65 L813 45 L797 31 L777 20 Z M612 374 L624 374 L637 380 L647 392 L650 403 L650 421 L645 435 L634 447 L621 451 L608 451 L593 444 L584 432 L580 419 L580 404 L584 391 L594 380 Z"/>
    <path d="M481 20 L462 28 L442 40 L421 57 L398 80 L384 98 L371 118 L360 135 L350 152 L341 170 L333 187 L327 205 L324 220 L322 233 L322 271 L325 290 L330 311 L337 331 L346 351 L357 370 L372 392 L391 416 L410 437 L430 454 L450 469 L471 483 L490 496 L502 510 L509 526 L513 547 L703 547 L679 528 L660 510 L646 490 L635 472 L626 455 L617 437 L611 421 L606 401 L604 391 L604 363 L609 341 L616 322 L625 307 L640 289 L657 272 L681 254 L703 237 L729 212 L739 198 L745 186 L748 165 L749 137 L746 123 L740 106 L731 92 L721 80 L703 62 L686 49 L667 34 L651 20 Z M496 145 L476 160 L458 174 L443 190 L435 202 L428 214 L423 226 L420 244 L419 271 L422 286 L428 303 L436 316 L446 328 L464 346 L484 361 L506 380 L526 400 L538 418 L542 433 L543 467 L539 486 L530 501 L519 515 L502 532 L484 547 L703 547 L683 532 L665 516 L654 501 L644 486 L636 473 L628 459 L621 445 L615 432 L609 417 L606 401 L604 391 L604 363 L607 349 L613 329 L621 314 L634 296 L650 278 L669 263 L690 247 L711 229 L734 206 L743 192 L747 173 L749 164 L749 137 L747 124 L743 113 L736 99 L727 87 L710 68 L690 52 L673 39 L659 27 L651 20 L481 20 Z"/>
    <path d="M104 0 L104 91 L105 93 L111 98 L120 102 L133 105 L151 105 L164 102 L175 98 L187 92 L201 83 L216 70 L248 40 L270 23 L291 11 L300 0 Z"/>
    <path d="M0 0 L0 547 L1366 547 L1366 0 Z M238 154 L256 172 L270 199 L275 221 L275 253 L268 282 L253 306 L231 325 L208 335 L179 338 L146 337 L119 327 L93 310 L74 287 L62 263 L55 232 L55 0 L119 0 L119 120 L137 108 L173 109 L197 117 L212 126 L231 144 Z M419 108 L452 111 L479 123 L502 142 L518 167 L527 199 L526 243 L518 274 L503 298 L483 316 L459 329 L430 335 L407 337 L407 454 L409 464 L418 473 L424 475 L432 473 L439 466 L442 459 L442 385 L443 366 L450 347 L464 332 L479 324 L503 321 L526 325 L542 335 L554 351 L560 369 L561 456 L564 465 L571 473 L577 475 L586 472 L591 465 L594 454 L594 337 L572 332 L548 322 L526 305 L511 283 L503 260 L501 247 L501 198 L507 174 L520 150 L541 129 L563 117 L591 110 L622 109 L650 114 L676 126 L697 145 L711 167 L719 190 L722 216 L719 250 L710 277 L694 299 L682 309 L682 321 L694 325 L710 333 L724 347 L737 370 L742 393 L742 522 L677 522 L676 448 L663 462 L643 473 L622 478 L599 478 L579 474 L561 466 L543 452 L532 439 L521 416 L516 394 L516 359 L521 336 L532 314 L544 299 L562 285 L579 276 L590 272 L590 116 L591 98 L597 76 L610 53 L625 37 L638 27 L653 20 L777 20 L797 31 L813 45 L826 65 L836 91 L840 116 L840 329 L890 476 L895 478 L961 343 L1026 343 L945 495 L934 512 L919 523 L899 529 L874 529 L853 522 L837 510 L826 495 L815 470 L767 325 L767 119 L765 104 L759 91 L748 80 L733 74 L714 74 L701 79 L691 88 L684 102 L681 118 L682 272 L694 276 L710 285 L724 299 L736 318 L743 336 L747 354 L748 369 L748 524 L676 524 L676 448 L663 462 L643 473 L622 478 L599 478 L579 474 L561 466 L543 452 L532 439 L521 416 L516 394 L516 359 L521 336 L532 314 L544 299 L562 285 L579 276 L590 272 L590 337 L572 332 L548 322 L526 305 L511 283 L503 260 L501 247 L501 198 L507 174 L520 150 L541 129 L563 117 L591 110 L622 109 L650 114 L676 126 L697 145 L711 167 L719 190 L722 216 L719 250 L710 277 L694 299 L682 309 L682 337 L660 332 L638 322 L620 307 L606 289 L597 268 L593 247 L593 199 L598 177 L610 155 L628 136 L652 121 L680 113 L712 110 L742 113 L769 125 L791 145 L806 169 L814 197 L815 244 L808 273 L793 298 L771 317 L748 329 L748 524 L816 524 L816 528 L1175 547 L1174 541 L1173 536 L1172 531 L1171 522 L1170 507 L1169 474 L1170 457 L1171 450 L1172 445 L1173 441 L1174 437 L1176 431 L1178 425 L1181 418 L1185 412 L1189 405 L1194 398 L1201 389 L1216 375 L1232 361 L1245 351 L1260 341 L1275 332 L1290 326 L1305 320 L1320 316 L1334 314 L1334 547 L1366 547 L1366 0 L968 0 L966 7 L963 15 L960 22 L957 30 L954 37 L951 47 L949 55 L947 67 L946 76 L945 90 L944 116 L944 420 L945 446 L946 460 L947 469 L948 475 L949 480 L951 488 L953 495 L956 504 L959 513 L963 525 L966 534 L969 543 L971 547 L703 547 L700 544 L688 535 L673 523 L660 510 L650 496 L641 482 L633 469 L626 456 L620 444 L615 432 L611 421 L607 410 L604 391 L604 363 L607 349 L612 332 L619 316 L630 301 L640 289 L657 272 L673 260 L690 247 L711 229 L729 212 L739 199 L745 186 L748 172 L749 137 L747 124 L742 110 L734 95 L721 80 L703 62 L686 49 L667 34 L651 20 L481 20 L462 28 L442 40 L421 57 L398 80 L384 98 L371 118 L360 135 L350 152 L341 170 L333 187 L327 205 L324 220 L322 233 L322 271 L325 290 L330 311 L337 331 L346 351 L357 370 L372 392 L391 416 L410 437 L430 454 L450 469 L471 483 L490 496 L502 510 L509 526 L513 547 L0 547 Z M131 166 L144 166 L153 168 L166 175 L179 190 L186 209 L186 234 L183 245 L174 261 L163 271 L144 278 L132 278 L123 276 L108 268 L97 255 L93 247 L89 232 L89 211 L96 190 L109 175 L120 169 Z"/>
  </g>
</svg>
